<?xml version="1.0" encoding="UTF-8" standalone="no"?><!DOCTYPE svg PUBLIC "-//W3C//DTD SVG 1.1//EN" "http://www.w3.org/Graphics/SVG/1.1/DTD/svg11.dtd"><svg width="100%" height="100%" viewBox="0 0 200 228" version="1.1" xmlns="http://www.w3.org/2000/svg" xmlns:xlink="http://www.w3.org/1999/xlink" xml:space="preserve" xmlns:serif="http://www.serif.com/" style="fill-rule:evenodd;clip-rule:evenodd;stroke-linejoin:round;stroke-miterlimit:2;"><g><path d="M150.734,26.583c32.729,25.991 39.468,59.683 21.178,121.291c-14.439,49.094 -45.243,82.786 -57.757,62.571c-2.888,-4.813 -20.215,-6.738 -38.505,-3.85c-29.841,4.813 -33.692,2.888 -33.692,-15.402c0,-11.551 -5.776,-20.215 -15.402,-20.215c-11.551,0 -13.477,-6.738 -9.626,-26.953c1.925,-14.439 6.738,-42.355 10.589,-61.608c5.776,-39.468 42.355,-75.085 77.01,-75.085c11.551,0 32.729,8.664 46.206,19.252Zm-51.019,53.907c0,7.701 4.813,11.551 9.626,8.664c5.776,-3.85 7.701,-10.589 4.813,-15.402c-8.664,-13.477 -14.439,-10.589 -14.439,6.738Zm33.692,-6.738c-2.888,4.813 -0.963,11.551 4.813,15.402c4.813,2.888 9.626,-0.963 9.626,-8.664c0,-17.327 -5.776,-20.215 -14.439,-6.738Z"/></g></svg>